<?xml version="1.0" encoding="UTF-8" standalone="no"?>
<!-- Created with Inkscape (http://www.inkscape.org/) -->

<svg
   width="320.16879"
   height="169.67509"
   id="svg8376"
   version="1.0"
   xml:space="preserve"
   xmlns:xlink="http://www.w3.org/1999/xlink"
   xmlns="http://www.w3.org/2000/svg"
   xmlns:svg="http://www.w3.org/2000/svg"
   xmlns:rdf="http://www.w3.org/1999/02/22-rdf-syntax-ns#"
   xmlns:cc="http://creativecommons.org/ns#"
   xmlns:dc="http://purl.org/dc/elements/1.1/"><defs
     id="defs8378"><linearGradient
       id="linearGradient6"><stop
         style="stop-color:#ebc334;stop-opacity:1;"
         offset="0"
         id="stop6" /><stop
         style="stop-color:#ebc334;stop-opacity:0;"
         offset="1"
         id="stop7" /></linearGradient><linearGradient
       xlink:href="#linearGradient6"
       id="linearGradient7"
       x1="340.54825"
       y1="376.93161"
       x2="476.2529"
       y2="376.93161"
       gradientUnits="userSpaceOnUse"
       gradientTransform="translate(63.490934,2.2462873)" /></defs><metadata
     id="metadata8381"><rdf:RDF><cc:Work
         rdf:about=""><dc:format>image/svg+xml</dc:format><dc:type
           rdf:resource="http://purl.org/dc/dcmitype/StillImage" /><dc:title /></cc:Work></rdf:RDF></metadata><g
     id="layer1"
     transform="translate(-288.02296,-394.84345)"><path
       style="font-size:12px;fill:#34b4eb;fill-opacity:1;fill-rule:nonzero;stroke:none;stroke-width:1.06862"
       d="m 441.13449,429.85893 4.60519,3.02348 -1.17338,0.0468 -6.91071,0.19344 -1.23136,0.0191 4.71026,-3.28288"
       id="NC_Clay" /><path
       style="font-size:12px;fill:#34b4eb;fill-opacity:1;fill-rule:nonzero;stroke:none;stroke-width:1.06862"
       d="m 448.1577,426.40048 4.27118,6.2284 -6.6892,0.25353 -4.60519,-3.02348 0.60119,-1.77551 0.38597,-0.59741 0.1329,-0.0611 3.9001,-0.63956 2.00305,-0.38492"
       id="NC_Macon" /><path
       style="font-size:12px;fill:#34b4eb;fill-opacity:1;fill-rule:nonzero;stroke:none;stroke-width:1.06862"
       d="m 458.66846,424.42946 2.05397,1.98118 0.42384,0.52986 0.12741,0.55866 0.0247,0.70263 0.2773,1.14174 0.10426,0.19816 0.21461,0.12605 -3.36371,1.5401 -2.35782,0.28371 -1.96025,0.59486 1.41093,-5.08502 3.04468,-2.57193"
       id="NC_Transylvania" /><path
       style="font-size:12px;fill:#34b4eb;fill-opacity:1;fill-rule:nonzero;stroke:none;stroke-width:1.06862"
       d="m 450.7963,422.84743 4.82747,4.15396 -1.41092,5.08502 -1.78397,0.54247 -4.27118,-6.2284 2.6386,-3.55305"
       id="NC_Jackson" /><path
       style="font-size:12px;fill:#34b4eb;fill-opacity:1;fill-rule:nonzero;stroke:none;stroke-width:1.06862"
       d="m 454.58205,417.42709 1.47306,2.18358 2.61335,4.81879 -3.04469,2.57193 -4.82747,-4.15396 -1.30387,-3.44164 -0.0293,-0.36555 5.11898,-1.61315"
       id="NC_Haywood" /><path
       style="font-size:12px;fill:#34b4eb;fill-opacity:1;fill-rule:nonzero;stroke:none;stroke-width:1.06862"
       d="m 449.49243,419.40579 1.30387,3.44164 -2.6386,3.55305 -2.00305,0.38492 -3.9001,0.63956 -0.1329,0.0611 -0.27882,-0.34251 0.0171,-0.18338 0.16552,-0.32434 0.10591,-0.0903 0.334,-0.13322 0.42805,-0.10628 0.26049,-0.0945 0.46034,-0.69527 0.14381,-0.45968 0.0115,-0.20614 -0.0306,-0.35676 -0.98951,-0.15574 -5.53692,-0.24843 5.09915,-2.14356 0.0835,0.0156 0.31866,0.037 2.51839,0.0206 0.23026,-0.0989 3.29335,-1.77494 0.73652,-0.73939"
       id="NC_Swain" /><path
       style="font-size:12px;fill:#34b4eb;fill-opacity:1;fill-rule:nonzero;stroke:none;stroke-width:1.06862"
       d="m 437.21255,424.08943 5.53692,0.24843 0.98951,0.15574 0.0306,0.35676 -0.0115,0.20614 -0.14381,0.45968 -0.46034,0.69527 -0.26049,0.0945 -0.42804,0.10629 -0.33401,0.13321 -0.10591,0.0903 -0.16552,0.32433 -0.0171,0.18338 0.27882,0.34251 -0.38597,0.59741 -3.2849,0.29247 -1.26678,0.3694 -0.17069,-0.0167 -0.60891,-0.29181 -0.48701,-1.09558 1.15553,-3.30984 0.13962,0.058"
       id="NC_Graham" /><path
       style="font-size:12px;fill:#34b4eb;fill-opacity:1;fill-rule:nonzero;stroke:#ffffff;stroke-width:1.06862"
       d="m 441.73568,428.08342 -0.60119,1.77551 -4.71026,3.28287 -2.2144,0.0238 -3.4367,0.0127 0.47706,-4.17095 1.5791,-0.95327 1.88277,0.14367 0.72951,-0.40997 0.47582,-0.44654 0.48701,1.09559 0.60892,0.2918 0.17068,0.0167 1.26677,-0.3694 3.28491,-0.29246"
       id="NC_Cherokee" /><path
       style="font-size:12px;fill:#34b4eb;fill-opacity:1;fill-rule:nonzero;stroke:none;stroke-width:1.06862"
       d="m 469.93589,411.07589 1.89886,3.65661 -2.60326,1.74601 -0.28571,-1.66808 -0.14365,-0.31599 -0.78814,-1.54242 -0.0698,-0.0942 -2.76214,-1.23608 -1.12793,0.24972 3.36908,-1.69946 2.51278,0.90384"
       id="NC_Mitchell" /><path
       style="font-size:12px;fill:#34b4eb;fill-opacity:1;fill-rule:nonzero;stroke:none;stroke-width:1.06862"
       d="m 464.05403,411.87151 1.12793,-0.24972 2.76215,1.23608 0.0698,0.0942 0.78815,1.54242 0.14364,0.31599 0.28572,1.66808 -2.42131,2.35888 -2.44156,-2.10633 -1.81104,-3.01742 1.49644,-1.84213"
       id="NC_Yancey" /><path
       style="font-size:12px;fill:#34b4eb;fill-opacity:1;fill-rule:nonzero;stroke:none;stroke-width:1.06862"
       d="m 460.80457,412.58784 1.75302,1.1258 1.81104,3.01742 -1.70474,0.3548 -1.02798,0.42821 -0.60814,0.29302 -1.18679,0.58296 -2.38762,1.03725 -1.39825,0.18337 -1.47306,-2.18358 1.06179,-2.90596 0.81004,-0.0957 1.70032,-1.0954 1.21713,-0.8287 0.33085,-0.16165 0.47882,-0.23308 0.0843,-0.004 0.24328,0.1688 -5.8e-4,0.008 0.29691,0.30874"
       id="NC_Madison" /><path
       style="font-size:12px;fill:#34b4eb;fill-opacity:1;fill-rule:nonzero;stroke:none;stroke-width:1.06862"
       d="m 466.81019,418.83739 2.0028,3.31887 -1.66764,1.19925 -1.21069,-0.58588 -1.24201,0.58647 -1.54355,0.53632 -1.37331,0.29387 -0.80003,-0.13872 -0.53366,-0.16012 -0.17335,-0.10129 -0.33454,-0.0859 -0.56293,0.13013 -0.18368,0.0961 -0.51914,0.50301 -2.61335,-4.81879 1.39825,-0.18337 2.38762,-1.03725 1.18679,-0.58296 0.60814,-0.29301 1.02798,-0.42821 1.70474,-0.3548 2.44156,2.10632"
       id="NC_Buncombe" /><path
       style="font-size:12px;fill:#34b4eb;fill-opacity:1;fill-rule:nonzero;stroke:none;stroke-width:1.06862"
       d="m 467.14535,423.35551 0.13141,1.42062 -1.53884,3.59813 -3.8433,1.29348 -0.21462,-0.12605 -0.10424,-0.19816 -0.27731,-1.14174 -0.0247,-0.70263 -0.1274,-0.55866 -0.42383,-0.52986 -2.05397,-1.98118 0.51913,-0.50302 0.18368,-0.0961 0.56294,-0.13013 0.33454,0.086 0.17334,0.10129 0.53366,0.16011 0.80002,0.13873 1.37332,-0.29387 1.54356,-0.53633 1.242,-0.58647 1.21068,0.58588"
       id="NC_Henderson" /><path
       style="font-size:12px;fill:#34b4eb;fill-opacity:1;fill-rule:nonzero;stroke:none;stroke-width:1.06862"
       d="m 472.62239,428.5528 -4.40763,-0.0361 -2.47684,-0.14241 1.53884,-3.59812 1.08411,-0.21549 0.70515,-0.14439 0.15807,0.0346 0.52239,0.25967 0.23933,0.17286 2.52028,2.30349 0.14487,0.26726 -0.0286,1.09859"
       id="NC_Polk" /><path
       style="font-size:12px;fill:#34b4eb;fill-opacity:1;fill-rule:nonzero;stroke:none;stroke-width:1.06862"
       d="m 477.22449,420.90126 -3.6e-4,4.25593 -0.89482,2.6099 -0.1208,0.80833 -1.89579,-0.0176 -1.69033,-0.005 0.0285,-1.09859 -0.14487,-0.26725 -2.52027,-2.3035 -0.23933,-0.17285 -0.52239,-0.25968 -0.15807,-0.0346 -0.70516,0.14439 -1.08411,0.21549 -0.1314,-1.42062 1.66764,-1.19926 6.07302,-1.08043 2.33847,-0.17457"
       id="NC_Rutherford" /><path
       style="font-size:12px;fill:#34b4eb;fill-opacity:1;fill-rule:nonzero;stroke:none;stroke-width:1.06862"
       d="m 471.83475,414.7325 0.63678,-0.93269 0.11555,0.072 0.11146,0.15594 0.3165,0.5786 0.0748,0.18789 0.0921,0.43532 -0.20942,0.7005 0.99744,2.40514 0.91605,2.74063 -6.07303,1.08045 -2.0028,-3.31886 2.42129,-2.35888 2.60327,-1.74602"
       id="NC_McDowell" /><path
       style="font-size:12px;fill:#34b4eb;fill-opacity:1;fill-rule:nonzero;stroke:none;stroke-width:1.06862"
       d="m 472.41628,407.96189 0.24179,-0.4368 2.01636,3.29354 0.19782,2.85415 -2.40072,0.12703 -0.63678,0.93269 -1.89886,-3.65661 2.48039,-3.114"
       id="NC_Avery" /><path
       style="font-size:12px;fill:#34b4eb;fill-opacity:1;fill-rule:nonzero;stroke:none;stroke-width:1.06862"
       d="m 476.03885,405.49962 1.47758,0.67851 0.91172,0.87055 0.61585,0.48789 1.38902,0.63583 -1.0805,2.38011 -4.67809,0.26612 -2.01636,-3.29354 0.16789,-0.29006 0.90228,-0.69806 0.93577,-0.42981 0.0239,-0.0124 0.0972,-0.0364 0.08,0.22689 0.43991,0.17021 0.27362,0.0149 0.0321,0.003 0.37707,-0.0698 0.0511,-0.90394"
       id="NC_Watauga" /><path
       style="font-size:12px;fill:#34b4eb;fill-opacity:1;fill-rule:nonzero;stroke:none;stroke-width:1.06862"
       d="m 488.49929,411.58677 -1.21174,5.13257 -3.92618,-0.17125 -0.0799,-3.82412 1.03297,-0.58464 0.53288,-0.12271 0.81238,-0.13985 0.27461,0.0859 1.23403,-0.13129 0.99945,-0.14381 0.3315,-0.1009"
       id="NC_Alexander" /><path
       style="font-size:12px;fill:#34b4eb;fill-opacity:1;fill-rule:nonzero;stroke:none;stroke-width:1.06862"
       d="m 476.62556,401.64282 5.67797,0.0594 0.0205,0.38097 0.95934,1.50285 0.55928,0.51495 0.13644,0.25311 0.29703,0.74102 0.0241,0.57672 -3.86718,2.50058 -1.38901,-0.63583 -0.61587,-0.48788 -0.91171,-0.87056 -1.47758,-0.67851 0.58672,-3.8568"
       id="NC_Ashe" /><path
       style="font-size:12px;fill:#34b4eb;fill-opacity:1;fill-rule:nonzero;stroke:none;stroke-width:1.06862"
       d="m 490.2096,401.64582 -0.98347,3.10605 -0.22244,0.52455 -0.81556,0.033 -0.29288,-0.35277 -0.0254,-0.32963 -0.71914,-0.4047 -0.13271,-0.0322 -1.14228,0.17578 -1.57542,1.30594 -0.0241,-0.57671 -0.29704,-0.74101 -0.13644,-0.25313 -0.55927,-0.51494 -0.95935,-1.50284 -0.0205,-0.38098 7.90607,-0.0564"
       id="NC_Alleghany" /><path
       style="font-size:12px;fill:#34b4eb;fill-opacity:1;fill-rule:nonzero;stroke:none;stroke-width:1.06862"
       d="m 484.3002,405.67182 1.57544,-1.30596 1.14227,-0.17576 0.13272,0.0322 0.71913,0.4047 0.0254,0.32964 0.2929,0.35276 0.81556,-0.033 0.22242,-0.52455 1.82086,3.08647 0.0265,3.45918 -2.5742,0.28924 -0.33151,0.1009 -0.99946,0.14381 -1.23402,0.13129 -0.27461,-0.086 -0.81239,0.13985 -0.53287,0.12271 -1.03298,0.58464 -3.92895,-2.17146 1.0805,-2.38011 3.86719,-2.50058"
       id="NC_Wilkes" /><path
       style="font-size:12px;fill:#34b4eb;fill-opacity:1;fill-rule:nonzero;stroke:none;stroke-width:1.06862"
       d="m 474.67443,410.81863 4.67809,-0.26612 3.92895,2.17146 0.0799,3.82412 -0.49842,0.5672 -0.2346,0.21101 -0.37843,-0.0117 -2.78951,-0.26467 -3.15078,-2.10149 -1.31434,-1.09042 -0.12305,-0.1852 -0.19781,-2.85414"
       id="NC_Caldwell" /><path
       style="font-size:12px;fill:#34b4eb;fill-opacity:1;fill-rule:nonzero;stroke:none;stroke-width:1.06862"
       d="m 474.87225,413.67278 0.12304,0.18518 1.31434,1.09043 3.15078,2.10149 2.78952,0.26467 0.37842,0.0117 0.23461,-0.21101 -2.83874,3.90656 -0.0507,0.0868 -2.74905,-0.20743 -2.33846,0.17456 -0.91606,-2.74064 -0.99744,-2.40514 0.20943,-0.7005 -0.0922,-0.43532 -0.0748,-0.1879 -0.3165,-0.57859 -0.11145,-0.15594 -0.11556,-0.072 2.40072,-0.12704"
       id="NC_Burke" /><path
       style="font-size:12px;fill:#34b4eb;fill-opacity:1;fill-rule:nonzero;stroke:none;stroke-width:1.06862"
       d="m 479.97354,421.10868 1.56708,2.70941 2.5204,4.80971 -0.69378,-0.008 -7.15873,-0.044 0.1208,-0.80832 0.89482,-2.6099 3.6e-4,-4.25594 2.74905,0.20744"
       id="NC_Cleveland" /><path
       style="font-size:12px;fill:#34b4eb;fill-opacity:1;fill-rule:nonzero;stroke:none;stroke-width:1.06862"
       d="m 481.54062,423.81809 8.90736,0.022 -1.30913,4.88179 -5.07783,-0.0941 -2.5204,-4.80972"
       id="NC_Gatson" /><path
       style="font-size:12px;fill:#34b4eb;fill-opacity:1;fill-rule:nonzero;stroke:none;stroke-width:1.06862"
       d="m 490.22056,421.0423 0.2901,1.13559 -0.0627,1.66223 -8.90736,-0.022 -1.56708,-2.7094 0.0507,-0.0869 10.19634,0.0205"
       id="NC_Lincoln" /><path
       style="font-size:12px;fill:#34b4eb;fill-opacity:1;fill-rule:nonzero;stroke:none;stroke-width:1.06862"
       d="m 483.36137,416.54809 3.92618,0.17125 2.12126,1.36008 0.56828,0.61648 0.71533,1.02459 -0.47186,1.32181 -10.19634,-0.0204 2.83874,-3.90657 0.49841,-0.56719"
       id="NC_Catawba" /><path
       style="font-size:12px;fill:#34b4eb;fill-opacity:1;fill-rule:nonzero;stroke:none;stroke-width:1.06862"
       d="m 491.07349,411.29753 3.3378,-0.0549 -0.0536,3.79776 -0.65403,2.40393 -0.2803,1.03408 0.69625,2.4705 0.0669,0.36625 0.0254,0.34295 -0.83771,0.0323 -2.86364,0.48751 -0.29008,-1.13559 0.47186,-1.32181 -0.71533,-1.02459 -0.5683,-0.61648 -2.12126,-1.36009 1.21175,-5.13258 2.5742,-0.28924"
       id="NC_Iredell" /><path
       style="font-size:12px;fill:#34b4eb;fill-opacity:1;fill-rule:nonzero;stroke:none;stroke-width:1.06862"
       d="m 490.51066,422.17789 2.86362,-0.48751 -0.0331,0.13593 0.007,0.12801 0.45967,1.73835 1.92174,2.48344 2.12431,1.03471 -4.94878,4.16706 -1.25311,-1.38939 -2.51341,-1.26659 1.30912,-4.88178 0.0627,-1.66223"
       id="NC_Mecklenburg" /><path
       style="font-size:12px;fill:#34b4eb;fill-opacity:1;fill-rule:nonzero;stroke:none;stroke-width:1.06862"
       d="m 494.3577,415.0404 4.5177,1.90914 2.26121,0.3523 2.36016,2.54694 0.53784,1.42769 -1.99709,0.11608 -7.82551,0.26555 -0.0254,-0.34295 -0.0669,-0.36625 -0.69624,-2.4705 0.28031,-1.03407 0.65402,-2.40393"
       id="NC_Rowan" /><path
       style="font-size:12px;fill:#34b4eb;fill-opacity:1;fill-rule:nonzero;stroke:none;stroke-width:1.06862"
       d="m 494.41129,411.24263 3.45969,-0.0577 1.8616,1.31698 0.29959,0.18318 0.0842,0.14145 0.14008,0.51402 0.0201,0.52895 -0.30051,1.09723 -0.70567,0.31901 -0.39494,1.66388 -4.5177,-1.90914 0.0536,-3.79776"
       id="NC_Davie" /><path
       style="font-size:12px;fill:#34b4eb;fill-opacity:1;fill-rule:nonzero;stroke:none;stroke-width:1.06862"
       d="m 498.42726,407.43017 -0.55628,3.75467 -3.45969,0.0577 -3.3378,0.0549 -0.0265,-3.45917 1.59713,-0.65842 2.64823,-0.50259 1.03263,0.0874 1.57466,0.3934 0.35379,0.13518 0.17383,0.13685"
       id="NC_Yadkin" /><path
       style="font-size:12px;fill:#34b4eb;fill-opacity:1;fill-rule:nonzero;stroke:none;stroke-width:1.06862"
       d="m 495.27528,401.50485 3.01385,0.0142 0.12216,5.52174 0.016,0.38941 -0.17385,-0.13686 -0.35379,-0.13518 -1.57465,-0.39339 -1.03264,-0.0874 -2.64824,0.5026 -1.59712,0.65841 -1.82086,-3.08647 0.98347,-3.10605 1.11824,0.008 3.94744,-0.14938"
       id="NC_Surry" /><path
       style="font-size:12px;fill:#34b4eb;fill-opacity:1;fill-rule:nonzero;stroke:none;stroke-width:1.06862"
       d="m 505.50823,401.33643 0.20848,5.45022 -7.30542,0.25412 -0.12216,-5.52174 6.76097,-0.16067 0.45813,-0.022"
       id="NC_Stokes" /><path
       style="font-size:12px;fill:#34b4eb;fill-opacity:1;fill-rule:nonzero;stroke:none;stroke-width:1.06862"
       d="m 498.41129,407.04077 7.30542,-0.25412 0.17083,4.71527 -6.15496,0.9999 -1.8616,-1.31698 0.55628,-3.75467 -0.016,-0.3894"
       id="NC_Forsyth" /><path
       style="font-size:12px;fill:#34b4eb;fill-opacity:1;fill-rule:nonzero;stroke:none;stroke-width:1.06862"
       d="m 499.73258,412.50182 6.15496,-0.9999 0.0379,1.71793 0.16435,7.92843 -2.05515,0.12819 -0.53783,-1.42769 -2.36017,-2.54694 -2.26121,-0.3523 0.39494,-1.66388 0.70567,-0.31901 0.30051,-1.09723 -0.0201,-0.52895 -0.14008,-0.51403 -0.0842,-0.14145 -0.29959,-0.18317"
       id="NC_Davidson" /><path
       style="font-size:12px;fill:#34b4eb;fill-opacity:1;fill-rule:nonzero;stroke:none;stroke-width:1.06862"
       d="m 502.03752,421.39255 1.99709,-0.11608 1.27146,0.72355 0.0989,0.0688 0.6703,1.19932 0.24957,0.61944 0.40095,3.4883 0.0109,0.11356 -0.0544,0.1679 -0.30937,0.41689 -3.652,-0.84324 -4.04162,0.38593 3.35831,-6.22442"
       id="NC_Stanly" /><path
       style="font-size:12px;fill:#34b4eb;fill-opacity:1;fill-rule:nonzero;stroke:none;stroke-width:1.06862"
       d="m 502.03752,421.39255 -3.3583,6.22442 -0.82506,-0.40615 -2.12432,-1.03471 -1.92174,-2.48344 -0.45966,-1.73835 -0.007,-0.12801 0.0331,-0.13593 0.83773,-0.0323 7.82552,-0.26556"
       id="NC_Cabarrus" /><path
       style="font-size:12px;fill:#34b4eb;fill-opacity:1;fill-rule:nonzero;stroke:none;stroke-width:1.06862"
       d="m 502.72082,427.23104 -0.3245,7.31972 -4.31122,0.13019 -3.86585,0.1144 -0.35067,-0.0934 0.0148,-0.17916 0.12913,-1.93553 -1.10714,-1.20937 4.94879,-4.16706 0.82506,0.40615 4.0416,-0.38593"
       id="NC_Union" /><path
       style="font-size:12px;fill:#34b4eb;fill-opacity:1;fill-rule:nonzero;stroke:none;stroke-width:1.06862"
       d="m 506.37283,428.07428 0.0241,0.16962 0.15455,0.41625 0.79471,0.36323 0.45773,0.0861 0.0947,-0.004 0.11695,-0.07 0.0508,-0.0483 0.079,-0.18622 0.39364,-0.28876 0.2419,-0.0963 0.28224,0.0276 0.27632,0.37483 0.41178,0.75368 0.96016,2.84856 -0.0129,0.0994 -0.21889,0.33985 -1.05291,1.49903 -7.03035,0.19212 0.32451,-7.31971 3.652,0.84324"
       id="NC_Anson" /><path
       style="font-size:12px;fill:#34b4eb;fill-opacity:1;fill-rule:nonzero;stroke:none;stroke-width:1.06862"
       d="m 510.96554,401.0797 3.56959,-0.16552 0.0238,5.56693 -2.9e-4,0.15985 -8.84195,0.14569 -0.20847,-5.45022 5.4573,-0.25673"
       id="NC_Rockingham" /><path
       style="font-size:12px;fill:#34b4eb;fill-opacity:1;fill-rule:nonzero;stroke:none;stroke-width:1.06862"
       d="m 505.71671,406.78665 8.84195,-0.14569 0.29207,6.52866 -8.92532,0.0502 -0.0379,-1.71793 -0.17082,-4.71527"
       id="NC_Guilford" /><path
       style="font-size:12px;fill:#34b4eb;fill-opacity:1;fill-rule:nonzero;stroke:none;stroke-width:1.06862"
       d="m 514.85073,413.16962 0.0671,1.07386 0.20092,6.2696 -3.7745,0.2669 -5.25449,0.3683 -0.16434,-7.92843 8.92532,-0.0502"
       id="NC_Randolph" /><path
       style="font-size:12px;fill:#34b4eb;fill-opacity:1;fill-rule:nonzero;stroke:none;stroke-width:1.06862"
       d="m 511.34424,420.77998 1.30956,4.21199 0.0216,0.24192 0.21151,0.38628 0.86711,1.10749 0.37463,0.32964 0.42725,0.21487 -1.78747,-0.087 -2.46684,-0.0748 -0.99834,0.45035 -1.91033,0.51389 -0.39973,0.0336 -0.62029,-0.0339 0.30937,-0.41689 0.0544,-0.16789 -0.0109,-0.11356 -0.40094,-3.48831 -0.24957,-0.61943 -0.6703,-1.19932 -0.0988,-0.0688 -1.27147,-0.72355 2.05514,-0.12818 5.2545,-0.3683"
       id="NC_Montgomery" /><path
       style="font-size:12px;fill:#34b4eb;fill-opacity:1;fill-rule:nonzero;stroke:none;stroke-width:1.06862"
       d="m 506.37283,428.07428 0.62029,0.0338 0.39973,-0.0336 1.91033,-0.51389 0.99835,-0.45035 2.46682,0.0748 1.78749,0.087 2.92829,2.15381 -0.92195,0.37638 -0.7059,0.4389 -0.32576,0.24062 -0.18846,0.73659 0.0394,0.23626 0.13217,0.23345 -0.39288,1.07046 -0.34161,0.48035 -1.06181,0.93712 -4.29064,0.18253 1.05292,-1.49904 0.21888,-0.33984 0.0129,-0.0994 -0.96017,-2.84856 -0.41177,-0.75368 -0.27631,-0.37483 -0.28224,-0.0276 -0.24191,0.0963 -0.39363,0.28875 -0.079,0.18622 -0.0508,0.0483 -0.11695,0.07 -0.0947,0.004 -0.45774,-0.0861 -0.79471,-0.36323 -0.15453,-0.41624 -0.0241,-0.16963"
       id="NC_Richmond" /><path
       style="font-size:12px;fill:#34b4eb;fill-opacity:1;fill-rule:nonzero;stroke:none;stroke-width:1.06862"
       d="m 519.74053,433.21517 -1.74634,4.07379 -4.27689,-3.11284 1.06181,-0.93713 0.34161,-0.48035 0.39288,-1.07046 -0.13216,-0.23345 -0.0394,-0.23625 0.18846,-0.7366 0.32576,-0.24061 0.70589,-0.4389 0.92195,-0.3764 2.2564,3.7892"
       id="NC_Scotland" /><path
       style="font-size:12px;fill:#34b4eb;fill-opacity:1;fill-rule:nonzero;stroke:none;stroke-width:1.06862"
       d="m 521.03955,400.54197 0.15538,5.72631 -1.81313,0.0704 -4.82284,0.14245 -0.0239,-5.56692 0.70741,-0.0435 2.2221,-0.12226 2.17009,-0.13029 1.40483,-0.0762"
       id="NC_Caswell" /><path
       style="font-size:12px;fill:#34b4eb;fill-opacity:1;fill-rule:nonzero;stroke:none;stroke-width:1.06862"
       d="m 514.55896,406.48111 4.82284,-0.14245 0.65463,6.99035 -5.11861,0.91447 -0.0671,-1.07386 -0.29208,-6.52866 3e-4,-0.15985"
       id="NC_Alamance" /><path
       style="font-size:12px;fill:#34b4eb;fill-opacity:1;fill-rule:nonzero;stroke:none;stroke-width:1.06862"
       d="m 518.76022,420.26871 3.25432,3.85395 1.70987,2.1001 5.9e-4,0.34942 -2.71101,-0.56493 -0.65321,0.38927 -0.94902,0.78084 -1.29629,1.47529 -0.6314,0.77332 -2.92831,-2.1538 -0.42725,-0.21487 -0.37463,-0.32964 -0.86711,-1.10749 -0.2115,-0.38628 -0.0216,-0.24192 -1.30954,-4.21199 3.77449,-0.2669 3.64148,-0.24437"
       id="NC_Moore" /><path
       style="font-size:12px;fill:#34b4eb;fill-opacity:1;fill-rule:nonzero;stroke:none;stroke-width:1.06862"
       d="m 517.48413,429.42597 0.63141,-0.77332 1.29628,-1.47529 0.94902,-0.78084 0.6532,-0.38927 2.71101,0.56493 1.44436,4.13632 -2.3364,2.1673 -1.008,0.28805 -2.08448,0.0513 -2.2564,-3.78919"
       id="NC_Hoke" /><path
       style="font-size:12px;fill:#34b4eb;fill-opacity:1;fill-rule:nonzero;stroke:none;stroke-width:1.06862"
       d="m 525.16941,430.7085 2.55386,2.12469 1.92665,2.66896 0.0314,0.28433 -0.61222,3.34358 -0.28733,0.37907 -0.9307,0.62719 -1.31656,1.86708 -1.06738,1.20304 -7.25012,-5.74919 -0.2228,-0.16829 1.74634,-4.07379 2.08448,-0.0513 1.008,-0.28805 2.33641,-2.16731"
       id="NC_Robeson" /><path
       style="font-size:12px;fill:#34b4eb;fill-opacity:1;fill-rule:nonzero;stroke:none;stroke-width:1.06862"
       d="m 539.94933,440.40298 1.76039,0.70167 -1.42799,2.78734 -2.26852,0.83275 -1.97863,0.38138 -0.2064,-0.005 -0.14261,0.0304 -0.51149,0.43123 -1.15231,2.51077 -0.44484,1.44287 -8.10982,-6.30972 1.06738,-1.20303 1.31656,-1.86708 0.9307,-0.62719 0.71196,0.3285 0.1521,0.0149 0.38112,-0.022 1.99864,-0.24621 2.15571,0.62328 2.397,0.84666 1.97327,0.0666 1.39778,-0.71782"
       id="NC_Columbus" /><path
       style="font-size:12px;fill:#34b4eb;fill-opacity:1;fill-rule:nonzero;stroke:none;stroke-width:1.06862"
       d="m 541.70972,441.10465 2.41508,0.32733 1.2568,1.62365 0.77294,2.23669 0.21202,1.20939 0.0316,0.41461 0.0859,2.05864 -1.40316,0.87718 -1.41605,-0.2447 -0.76466,-0.0687 -0.73363,0.008 -1.77852,0.14628 -1.86016,0.31301 -0.0633,0.0131 -0.007,-4.7e-4 -2.20016,0.83347 -0.55935,0.31257 -2.12126,-1.64874 0.44484,-1.44288 1.15231,-2.51077 0.51149,-0.43123 0.14261,-0.0304 0.2064,0.005 1.97863,-0.38139 2.26852,-0.83274 1.42799,-2.78734"
       id="NC_Brunswick" /><path
       style="font-size:12px;fill:#34b4eb;fill-opacity:1;fill-rule:nonzero;stroke:none;stroke-width:1.06862"
       d="m 549.81812,441.8067 -0.38352,0.39485 -0.37909,0.54479 -1.03368,1.65338 -0.18865,0.43607 -0.47402,1.27274 -0.0496,0.15653 -0.8257,2.7099 -0.0859,-2.05864 -0.0316,-0.41461 -0.21202,-1.20939 -0.77294,-2.23669 -1.2568,-1.62365 1.81044,-0.73234 1.44606,-0.43184 0.70908,0.0618 -0.16279,0.17212 0.0572,0.15214 0.25136,0.26433 1.13244,0.8447 0.44955,0.0439"
       id="NC_New_Hanover" /><path
       style="font-size:12px;fill:#34b4eb;fill-opacity:1;fill-rule:nonzero;stroke:none;stroke-width:1.06862"
       d="m 534.94381,431.9831 4.77913,5.483 -0.28216,0.32628 0.0355,0.0953 0.37315,0.51159 0.28944,0.1955 0.52643,0.11057 0.60691,0.35971 -1.32289,1.33798 -1.39778,0.71782 -1.97327,-0.0666 -2.39701,-0.84666 -2.1557,-0.62328 -1.99864,0.24621 -0.38113,0.022 -0.15209,-0.0148 -0.71196,-0.32849 0.28733,-0.37909 0.61222,-3.34357 -0.0314,-0.28433 -1.92665,-2.66897 1.02512,-0.30118 0.75481,-0.0922 4.76007,-0.31735 0.50045,-0.0577 0.18008,-0.0816"
       id="NC_Bladen" /><path
       style="font-size:12px;fill:#34b4eb;fill-opacity:1;fill-rule:nonzero;stroke:none;stroke-width:1.06862"
       d="m 532.1531,424.70446 -0.71274,2.97257 -0.0182,0.13886 0.3218,0.85299 0.44593,0.96426 0.10614,0.18355 2.64769,2.16641 -0.18009,0.0816 -0.50045,0.0577 -4.76005,0.31735 -0.75484,0.0922 -1.02511,0.30119 -2.55385,-2.12468 -1.44436,-4.13632 -5.9e-4,-0.34942 0.56806,-0.15628 3.30078,-0.93931 1.64015,-0.56834 0.53913,-0.0526 2.38058,0.19814"
       id="NC_Cumberland" /><path
       style="font-size:12px;fill:#34b4eb;fill-opacity:1;fill-rule:nonzero;stroke:none;stroke-width:1.06862"
       d="m 526.10118,413.15225 -0.0272,0.48438 -1.17413,4.51598 1.46378,0.42995 -0.89427,1.22732 -1.55223,-1.32679 -0.31304,-0.22445 -0.17168,-0.0878 -0.45835,-0.16016 -0.35496,-0.008 -0.32411,0.0572 -0.86454,0.9075 -0.86342,0.5183 -1.34843,0.6412 -0.45835,0.14182 -3.64149,0.24435 -0.20091,-6.26959 5.1186,-0.91446 4.12366,0.0218 1.94109,-0.19851"
       id="NC_Chatham" /><path
       style="font-size:12px;fill:#34b4eb;fill-opacity:1;fill-rule:nonzero;stroke:none;stroke-width:1.06862"
       d="m 526.36361,418.58256 3.74803,1.01249 3.28279,3.70129 -1.24133,1.40812 -2.38056,-0.19815 -0.53914,0.0525 -1.64015,0.56835 -3.30079,0.9393 -0.56805,0.15629 -1.70987,-2.10011 3.4548,-4.31277 0.89427,-1.22732"
       id="NC_Harnett" /><path
       style="font-size:12px;fill:#34b4eb;fill-opacity:1;fill-rule:nonzero;stroke:none;stroke-width:1.06862"
       d="m 518.76022,420.26871 0.45835,-0.14181 1.34843,-0.64122 0.86343,-0.51828 0.86456,-0.9075 0.32409,-0.0572 0.35495,0.008 0.45835,0.16018 0.1717,0.0878 0.31303,0.22446 1.55223,1.3268 -3.4548,4.31277 -3.25432,-3.85394"
       id="NC_Lee" /><path
       style="font-size:12px;fill:#34b4eb;fill-opacity:1;fill-rule:nonzero;stroke:none;stroke-width:1.06862"
       d="m 521.19493,406.26828 3.56352,-0.14538 -0.59836,7.22787 -4.12366,-0.0218 -0.65463,-6.99035 1.81313,-0.0704"
       id="NC_Orange" /><path
       style="font-size:12px;fill:#34b4eb;fill-opacity:1;fill-rule:nonzero;stroke:none;stroke-width:1.06862"
       d="m 521.03955,400.54197 5.97022,-0.34437 0.36572,5.83268 -2.61704,0.0926 -3.56352,0.14538 -0.15538,-5.72631"
       id="NC_Person" /><path
       style="font-size:12px;fill:#34b4eb;fill-opacity:1;fill-rule:nonzero;stroke:none;stroke-width:1.06862"
       d="m 527.37549,406.03028 1.17947,3.08312 0.9645,1.05629 -0.18946,0.86233 -0.25874,0.46179 -0.46851,0.54793 -1.16852,1.04661 -1.33305,0.0638 -1.94109,0.1985 0.59836,-7.22786 2.61704,-0.0926"
       id="NC_Durham" /><path
       style="font-size:12px;fill:#34b4eb;fill-opacity:1;fill-rule:nonzero;stroke:none;stroke-width:1.06862"
       d="m 541.98236,434.10406 7.72358,-0.49459 3.41419,5.1219 -3.30201,3.07533 -0.44954,-0.0439 -1.13243,-0.84469 -0.25138,-0.26434 -0.0573,-0.15214 0.16278,-0.17212 -0.70907,-0.0618 -1.44607,0.43185 -1.81044,0.73235 -2.41507,-0.32734 -1.76039,-0.70167 1.32288,-1.33798 -0.6069,-0.35971 -0.52643,-0.11057 -0.28944,-0.19549 -0.37316,-0.51159 -0.0355,-0.0953 0.28215,-0.32628 2.25942,-3.36205"
       id="NC_Pender" /><path
       style="font-size:12px;fill:#34b4eb;fill-opacity:1;fill-rule:nonzero;stroke:none;stroke-width:1.06862"
       d="m 533.39443,423.29634 4.24299,0.28801 2.66475,1.68104 0.25336,2.08683 0.51802,3.35169 -0.68052,3.21109 1.22296,0.45236 0.11501,-0.0421 0.25136,-0.22123 -2.25942,3.36205 -4.77913,-5.48302 -2.64768,-2.1664 -0.10615,-0.18355 -0.44593,-0.96427 -0.3218,-0.85298 0.0182,-0.13886 0.71275,-2.97258 1.24133,-1.40812"
       id="NC_Sampson" /><path
       style="font-size:12px;fill:#34b4eb;fill-opacity:1;fill-rule:nonzero;stroke:none;stroke-width:1.06862"
       d="m 541.39416,417.61196 4.27818,-0.0475 0.66493,3.83973 -0.16494,3.69363 -5.87016,0.16762 -2.66475,-1.68104 0.7971,-0.79713 1.64092,-1.87394 1.31872,-3.30132"
       id="NC_Wayne" /><path
       style="font-size:12px;fill:#34b4eb;fill-opacity:1;fill-rule:nonzero;stroke:none;stroke-width:1.06862"
       d="m 538.8944,414.99368 0.66454,0.77094 0.72836,1.58098 1.10686,0.26636 -1.31872,3.30132 -1.64092,1.87394 -0.7971,0.79713 -4.24299,-0.28801 -3.28279,-3.70129 2.77686,-2.67059 2.75063,-2.11506 2.0061,-1.40606 1.24917,1.59034"
       id="NC_Johnston" /><path
       style="font-size:12px;fill:#34b4eb;fill-opacity:1;fill-rule:nonzero;stroke:none;stroke-width:1.06862"
       d="m 528.55496,409.1134 3.631,0.72868 0.97043,0.30191 1.21168,0.46014 2.21925,1.38297 0.55273,0.49949 0.48434,0.72227 0.0208,0.19448 -2.00611,1.40606 -2.75063,2.11506 -2.77685,2.67059 -3.74804,-1.01249 -1.46379,-0.42995 1.17415,-4.51598 0.0272,-0.48438 1.33306,-0.0638 1.16851,-1.04661 0.46853,-0.54792 0.25873,-0.46179 0.18945,-0.86234 -0.9645,-1.05628"
       id="NC_Wake" /><path
       style="font-size:12px;fill:#34b4eb;fill-opacity:1;fill-rule:nonzero;stroke:none;stroke-width:1.06862"
       d="m 528.09097,400.12245 4.83855,-0.30228 -0.66315,0.5837 -0.0939,0.36539 -0.0142,1.23765 0.24408,2.91935 0.19643,1.80149 0.22212,0.13417 -0.635,2.98016 -3.63101,-0.72868 -1.17947,-3.08312 -0.36571,-5.83268 1.0812,-0.0752"
       id="NC_Granville" /><path
       style="font-size:12px;fill:#34b4eb;fill-opacity:1;fill-rule:nonzero;stroke:none;stroke-width:1.06862"
       d="m 532.92952,399.82017 2.32119,-0.17329 0.7471,5.27035 -3.17684,1.94469 -0.22212,-0.13417 -0.19644,-1.80149 -0.24408,-2.91935 0.0142,-1.23765 0.0938,-0.36539 0.66316,-0.5837"
       id="NC_Vance" /><path
       style="font-size:12px;fill:#34b4eb;fill-opacity:1;fill-rule:nonzero;stroke:none;stroke-width:1.06862"
       d="m 540.09023,399.32397 2.55541,-0.18449 0.0972,0.72448 -1.3723,5.91779 -5.37275,-0.86452 -0.7471,-5.27035 4.83952,-0.32291"
       id="NC_Warren" /><path
       style="font-size:12px;fill:#34b4eb;fill-opacity:1;fill-rule:nonzero;stroke:none;stroke-width:1.06862"
       d="m 541.37056,405.78175 -3.72533,7.62159 -0.0209,-0.19448 -0.48433,-0.72227 -0.55273,-0.49949 -2.21925,-1.38297 -1.21168,-0.46014 -0.97045,-0.30191 0.63503,-2.98016 3.17684,-1.94469 5.37274,0.86452"
       id="NC_Franklin" /><path
       style="font-size:12px;fill:#34b4eb;fill-opacity:1;fill-rule:nonzero;stroke:none;stroke-width:1.06862"
       d="m 546.86403,406.36345 -0.16663,0.91043 -1.11876,3.04105 -0.50966,1.65121 -6.17458,3.02754 -1.24917,-1.59034 3.72533,-7.62159 5.49347,0.5817"
       id="NC_Nash" /><path
       style="font-size:12px;fill:#34b4eb;fill-opacity:1;fill-rule:nonzero;stroke:none;stroke-width:1.06862"
       d="m 555.46497,398.19449 1.41702,1.32692 -0.97137,2.06804 -0.64964,2.37031 -1.3093,1.60133 -0.11246,0.0749 -0.17213,-0.0449 -1.41278,-0.68996 -3.53257,-2.61243 -0.15545,-1.22313 -1.62578,-0.97276 -4.10616,-0.33981 -0.0915,0.11099 -0.0972,-0.72448 2.31006,-0.15366 8.21489,-0.58731 2.29438,-0.20403"
       id="NC_Northampton" /><path
       style="font-size:12px;fill:#34b4eb;fill-opacity:1;fill-rule:nonzero;stroke:none;stroke-width:1.06862"
       d="m 542.74286,399.86396 0.0915,-0.11098 4.10616,0.33981 1.62578,0.97275 0.15545,1.22313 3.53257,2.61243 1.41278,0.68997 0.17213,0.0448 0.11246,-0.0749 -0.44934,1.83176 -1.18688,1.4238 -0.37122,0.0511 -1.7136,-0.52242 -0.22894,-0.59374 -0.88118,-0.52709 -2.25649,-0.86108 -5.49347,-0.5817 1.3723,-5.91779"
       id="NC_Halifax" /><path
       style="font-size:12px;fill:#34b4eb;fill-opacity:1;fill-rule:nonzero;stroke:none;stroke-width:1.06862"
       d="m 552.31546,408.81665 1.25124,3.46465 -0.72063,-0.20945 -1.38837,0.71135 -0.43538,0.50377 -0.57682,0.51219 -2.09677,1.57634 -1.12549,-0.93729 -0.61384,-1.46175 -1.54042,-1.01032 0.50966,-1.65121 1.11876,-3.04105 0.16663,-0.91043 2.25649,0.86108 0.88118,0.52708 0.22894,0.59375 1.7136,0.52241 0.37122,-0.0511"
       id="NC_Edgecombe" /><path
       style="font-size:12px;fill:#34b4eb;fill-opacity:1;fill-rule:nonzero;stroke:none;stroke-width:1.06862"
       d="m 545.06898,411.96614 1.54042,1.01032 0.61384,1.46175 1.12549,0.93729 -0.64519,0.52476 -2.0312,1.66415 -4.27818,0.0475 -1.10686,-0.26635 -0.72836,-1.58099 -0.66454,-0.77094 6.17458,-3.02754"
       id="NC_Wilson" /><path
       style="font-size:12px;fill:#34b4eb;fill-opacity:1;fill-rule:nonzero;stroke:none;stroke-width:1.06862"
       d="m 547.70354,415.90026 4.37641,4.01669 -1.54526,0.94325 -1.18632,0.63186 -0.6002,0.16647 -0.1608,0.0124 -0.27994,-0.34705 -1.97016,0.0802 -0.66493,-3.83973 2.0312,-1.66415"
       id="NC_Greene" /><path
       style="font-size:12px;fill:#34b4eb;fill-opacity:1;fill-rule:nonzero;stroke:none;stroke-width:1.06862"
       d="m 553.74523,421.45313 -1.27331,2.23103 -0.94357,-0.20602 0.40949,1.36188 -0.0247,0.12342 -1.42382,1.87588 -2.176,1.37024 -2.14104,-3.11179 0.16494,-3.69363 1.97017,-0.0802 0.27994,0.34705 0.1608,-0.0124 0.60019,-0.16647 1.18632,-0.63187 1.54526,-0.94324 1.66528,1.53617"
       id="NC_Lenoir" /><path
       style="font-size:12px;fill:#34b4eb;fill-opacity:1;fill-rule:nonzero;stroke:none;stroke-width:1.06862"
       d="m 552.47192,423.68416 0.18155,0.0385 5.09252,2.3575 0.50821,0.30271 0.70804,-0.28474 0.19336,0.0529 0.0934,0.12311 0.20793,0.88627 0.20014,3.61083 0.43534,0.50729 -1.31537,0.44016 -1.12068,-1.69624 -0.0729,-0.0974 -0.89053,-0.74414 -0.54163,-0.11204 -4.99407,-0.4871 -1.85963,0.23015 -0.98434,-0.60228 2.17601,-1.37024 1.42383,-1.87587 0.0246,-0.12343 -0.40948,-1.36187 0.94359,0.20601"
       id="NC_Jones" /><path
       style="font-size:12px;fill:#34b4eb;fill-opacity:1;fill-rule:nonzero;stroke:none;stroke-width:1.06862"
       d="m 540.30217,425.26539 5.87016,-0.16762 2.14103,3.11179 0.98434,0.60228 0.57885,0.88989 -0.27869,3.55524 -2.3e-4,0.11989 0.10831,0.23261 -7.72358,0.49459 -0.25136,0.22122 -0.11501,0.0421 -1.22296,-0.45235 0.68052,-3.2111 -0.51802,-3.35169 -0.25336,-2.08682"
       id="NC_Duplin" /><path
       style="font-size:12px;fill:#34b4eb;fill-opacity:1;fill-rule:nonzero;stroke:none;stroke-width:1.06862"
       d="m 549.2977,428.81184 1.85962,-0.23016 4.99407,0.48711 0.54163,0.11204 0.89054,0.74414 0.0729,0.0974 1.12067,1.69624 1.22923,2.7016 -6.88621,4.31116 -3.4142,-5.1219 -0.10831,-0.23261 2.4e-4,-0.11989 0.27868,-3.55524 -0.57885,-0.88989"
       id="NC_Onslow" /><path
       style="font-size:12px;fill:#34b4eb;fill-opacity:1;fill-rule:nonzero;stroke:none;stroke-width:1.06862"
       d="m 567.60924,426.54176 0.058,0.13296 0.27511,0.31846 0.72327,0.005 3.40097,0.0119 0.22346,2.30301 3.98443,-2.92733 -1.11421,1.73286 -4.14671,5.0121 -0.95241,0.38674 -0.57522,-0.23524 -1.79178,-0.4871 -0.91279,0.004 -0.76754,0.0584 -0.83602,0.12421 -1.56964,0.3295 -1.47543,0.36828 -0.16142,0.0435 -0.066,0.0202 -0.48146,0.14844 -0.41198,0.15374 -0.70539,0.26427 -0.30015,0.10988 -1.22922,-2.7016 1.31537,-0.44016 2.38158,-0.33467 3.46289,-0.94866 1.11004,-0.5194 0.44545,-0.86991 0.13866,-0.42022 -0.1106,-0.10998 -1.02355,-0.72158 1.11228,-0.81227"
       id="NC_Carteret" /><path
       style="font-size:12px;fill:#34b4eb;fill-opacity:1;fill-rule:nonzero;stroke:none;stroke-width:1.06862"
       d="m 567.61689,420.41834 1.93006,0.17493 0.33782,0.12621 0.21665,0.34681 0.12012,0.33886 0.0296,0.29749 -0.3797,0.95628 -0.73548,1.78164 -0.34451,0.52892 -1.18229,1.57228 -1.11228,0.81227 -0.84914,0.60555 -0.3221,0.0944 -0.68799,0.0128 -1.52471,-0.4877 -0.92167,-0.57101 -0.36169,-0.41573 -0.52873,-2.16698 0.30968,-0.87872 0.28915,-0.4455 0.78893,-0.65583 0.95458,0.64677 3.74387,-0.66219 0.24323,-0.69721 0.0223,-0.17102 -0.0357,-1.14335"
       id="NC_Pamlico" /><path
       style="font-size:12px;fill:#34b4eb;fill-opacity:1;fill-rule:nonzero;stroke:none;stroke-width:1.06862"
       d="m 557.14409,419.69589 5.5446,2.74946 -0.78895,0.65581 -0.28914,0.44551 -0.30969,0.87873 0.52874,2.16698 0.3617,0.41573 0.92166,0.57101 1.52471,0.4877 0.688,-0.0128 0.32209,-0.0944 0.84915,-0.60554 1.02354,0.72158 0.11061,0.10997 -0.13866,0.42022 -0.44546,0.86991 -1.11004,0.5194 -3.46287,0.94866 -2.38159,0.33468 -0.43534,-0.50729 -0.20014,-3.61083 -0.20793,-0.88628 -0.0935,-0.12311 -0.19336,-0.0529 -0.70804,0.28474 -0.50822,-0.30272 -5.09251,-2.35749 -0.18155,-0.0385 1.2733,-2.23103 3.39887,-1.75725"
       id="NC_Craven" /><path
       style="font-size:12px;fill:#34b4eb;fill-opacity:1;fill-rule:nonzero;stroke:none;stroke-width:1.06862"
       d="m 553.5667,412.2813 3.27792,1.41517 0.29947,5.99942 -3.39886,1.75724 -1.66528,-1.53618 -4.37641,-4.01669 0.64519,-0.52476 2.09677,-1.57634 0.57682,-0.51219 0.43538,-0.50377 1.38837,-0.71135 0.72063,0.20945"
       id="NC_Pitt" /><path
       style="font-size:12px;fill:#34b4eb;fill-opacity:1;fill-rule:nonzero;stroke:none;stroke-width:1.06862"
       d="m 553.50234,407.39287 0.0101,0.10608 0.13123,0.22744 2.36744,2.07098 0.19416,0.12553 2.67834,1.15684 0.19351,0.0648 3.44424,-0.0312 1.33648,-0.48399 -1.16873,3.14868 -1.79712,0.84022 -0.58852,0.24755 -1.49058,-0.5658 -1.9683,-0.60352 -3.27792,-1.41517 -1.25123,-3.46465 1.18687,-1.42378"
       id="NC_Martin" /><path
       style="font-size:12px;fill:#34b4eb;fill-opacity:1;fill-rule:nonzero;stroke:none;stroke-width:1.06862"
       d="m 564.11924,402.3368 2.29108,-1.24208 -0.30596,2.18919 0.5572,2.40809 0.0597,0.0665 0.18818,0.1057 0.38035,0.0889 0.70203,0.11585 1.56175,0.0723 -4.39022,1.39262 -1.11371,-4.19141 0.0695,-1.00577"
       id="NC_Chowan" /><path
       style="font-size:12px;fill:#34b4eb;fill-opacity:1;fill-rule:nonzero;stroke:none;stroke-width:1.06862"
       d="m 559.80557,397.91766 0.27278,0.45443 -0.0477,0.18187 -0.39277,0.71518 -0.29691,0.0851 0.16086,1.05045 0.0554,0.0735 0.24664,0.18245 0.47053,0.17172 1.52568,0.37531 0.47152,0.0459 1.84756,1.08321 -0.0696,1.00577 -3.37541,0.27772 -1.90224,0.21563 -3.05309,0.16852 -0.458,-0.0447 0.64964,-2.37032 0.97136,-2.06803 -1.41701,-1.32692 4.30941,-0.27395 0.0311,-0.003"
       id="NC_Hertford" /><path
       style="font-size:12px;fill:#34b4eb;fill-opacity:1;fill-rule:nonzero;stroke:none;stroke-width:1.06862"
       d="m 564.04972,403.34257 1.1137,4.1914 -0.26197,1.47108 -1.04358,1.62429 -1.33648,0.48399 -3.44424,0.0312 -0.19352,-0.0648 -2.67833,-1.15684 -0.19416,-0.12552 -2.36744,-2.07098 -0.13123,-0.22745 -0.0101,-0.10609 0.44935,-1.83177 1.30931,-1.60133 0.45799,0.0447 3.05309,-0.16853 1.90225,-0.21562 3.37539,-0.27772"
       id="NC_Bertie" /><path
       style="font-size:12px;fill:#34b4eb;fill-opacity:1;fill-rule:nonzero;stroke:none;stroke-width:1.06862"
       d="m 566.3148,397.28538 0.95113,0.68639 0.93478,2.46563 -1.79039,0.65732 -2.29108,1.24208 -1.84757,-1.08321 -0.47151,-0.046 -1.52568,-0.37531 -0.47053,-0.17172 -0.24664,-0.18245 -0.0554,-0.0735 -0.16085,-1.05044 0.29691,-0.0851 0.39276,-0.71518 0.0477,-0.18188 -0.27279,-0.45442 6.50924,-0.63229"
       id="NC_Gates" /><path
       style="font-size:12px;fill:#34b4eb;fill-opacity:1;fill-rule:nonzero;stroke:none;stroke-width:1.06862"
       d="m 567.19055,397.21092 3.10078,-0.25862 2.96043,2.14363 1.94411,1.18293 0.0929,-0.0561 0.23243,0.0419 0.37158,0.16948 1.17784,0.96904 1.47845,2.29957 0.006,0.0479 -2.81216,-0.20915 -0.4604,-0.56451 -1.22015,-0.93319 -2.40365,-1.60968 -3.30117,-1.72239 -1.09132,-0.74002 -0.95112,-0.68639 0.87573,-0.0745"
       id="NC_Camden" /><path
       style="font-size:12px;fill:#34b4eb;fill-opacity:1;fill-rule:nonzero;stroke:none;stroke-width:1.06862"
       d="m 567.26593,397.97177 1.09131,0.74003 3.30119,1.72237 2.40363,1.60969 1.22016,0.93319 0.4604,0.56451 -2.34837,1.44521 -1.59429,-1.13548 -1.9819,-1.26064 -1.47362,-1.87721 -0.14373,-0.27604 -0.93478,-2.46563"
       id="NC_Pasquotank" /><path
       style="font-size:12px;fill:#34b4eb;fill-opacity:1;fill-rule:nonzero;stroke:none;stroke-width:1.06862"
       d="m 568.20071,400.4374 0.14373,0.27604 1.47362,1.87721 1.9819,1.26064 1.59429,1.13548 -3.8406,1.15459 -1.56175,-0.0724 -0.70202,-0.11585 -0.38036,-0.0889 -0.18818,-0.10569 -0.0597,-0.0665 -0.5572,-2.40809 0.30595,-2.18918 1.79039,-0.65732"
       id="NC_Perquimans" /><path
       style="font-size:12px;fill:#34b4eb;fill-opacity:1;fill-rule:nonzero;stroke:none;stroke-width:1.06862"
       d="m 566.33688,413.49873 2.86283,2.3147 -1.58458,1.07412 -0.2107,0.0801 -0.0644,0.0737 -0.0103,0.079 0.0401,0.23041 0.43977,0.9459 0.51339,0.74879 0.25706,0.32559 -0.96322,1.04739 0.0357,1.14335 -0.0223,0.17102 -0.24323,0.69721 -3.74388,0.66219 -0.95457,-0.64676 -5.54459,-2.74946 -0.29948,-5.99942 1.96829,0.60352 1.49059,0.5658 0.58851,-0.24755 1.79712,-0.84023 3.64774,-0.27927"
       id="NC_Beaufort" /><path
       style="font-size:12px;fill:#34b4eb;fill-opacity:1;fill-rule:nonzero;stroke:none;stroke-width:1.06862"
       d="m 564.90145,409.00505 0.0137,0.0132 0.33534,0.15854 0.11226,0.0183 1.03646,-0.13872 1.74125,-0.39861 0.56731,-0.25554 0.20944,-0.20163 1.06576,-0.35051 0.16007,0.0719 0.15711,0.14708 0.45709,0.52421 0.0227,2.01843 -0.48207,0.96702 0.33199,1.71996 -4.29293,0.20007 -3.64774,0.27927 1.16873,-3.14867 1.04359,-1.62429"
       id="NC_Washington" /><path
       style="font-size:12px;fill:#34b4eb;fill-opacity:1;fill-rule:nonzero;stroke:none;stroke-width:1.06862"
       d="m 577.1709,413.30159 -6.5411,-0.003 -0.33198,-1.71997 0.48207,-0.96701 -0.0227,-2.01843 1.46123,-0.70571 0.99202,-0.37548 0.6443,-0.15033 2.01351,-0.16332 0.70927,0.36229 0.19141,0.18595 0.29629,1.03552 -0.0708,0.24033 -0.0763,0.53287 0.0408,1.05208 0.17449,1.09025 0.12493,1.27344 -0.0876,0.33045"
       id="NC_Tyrrell" /><path
       id="NC_Dare"
       style="font-size:12px;fill:#d0d0d0;fill-opacity:1;fill-rule:nonzero;stroke:#34b4eb;stroke-width:1.06862;stroke-opacity:1"
       d="m 577.1709,413.30159 0.0876,-0.33045 -0.12493,-1.27343 -0.1745,-1.09026 -0.0408,-1.05207 0.0763,-0.53288 0.0708,-0.24032 0.88657,-1.12888 0.14633,-0.11156 0.65546,-0.2884 0.34664,-0.0594 0.33492,-0.0221 0.18851,0.0243 0.74497,0.25919 0.54644,0.54773 1.03761,1.62447 0.16434,0.30172 0.52428,2.33235 0.008,0.0881 -0.1413,1.32 -0.69598,0.95355 -0.37137,0.13106 -0.70417,0.12376 -0.58452,-0.17692 -2.98045,-1.39948 m 5.61915,-5.47543 0.29646,0.15475 0.28332,0.24228 0.35835,0.40208 0.25094,0.49078 0.13959,0.76711 -0.0944,0.13291 -0.0709,0.004 -0.79991,-0.20533 -0.13763,-0.1126 -1.06895,-1.73856 -0.0749,-0.14793 -0.003,-0.0403 0.14309,-0.0867 0.22635,-0.0164 0.26026,0.0253 0.29144,0.1276 m 0.24455,13.98198 0.33923,-0.12086 0.27069,-0.12015 1.48657,-0.68992 1.60058,-0.80314 0.08,-0.29863 0.16986,-1.91972 0.0619,-1.28779 0.0624,-1.90948 -0.10971,-0.87817 -0.10302,-0.44379 -0.17002,-0.46809 -0.23491,-0.3249 -0.18545,-0.25791 -0.66818,-1.72759 0.0728,-0.0595 0.0946,0.0226 0.0311,0.0105 0.0304,0.0429 0.38929,0.51909 0.14225,0.26109 0.41238,0.91954 0.22941,0.65597 0.31933,0.87197 0.0311,0.82463 3.9e-4,0.24578 0.008,1.16881 -0.0695,1.70153 -0.10685,1.38406 -0.22836,1.67272 -0.11375,0.16359 -0.20354,-0.0272 -0.27958,-0.048 -0.35432,0.0528 -0.52328,0.11476 -0.43232,0.1784 -1.93892,0.83824 -0.11105,-0.26397 m -2.63047,-19.58684 0.7805,1.41732 0.005,0.006 0.43771,0.73846 0.45422,0.65125 0.80079,1.0255 0.83249,1.2418 1.07917,1.6078 0.69076,1.19983 -0.10952,0.20989 -1.50583,-1.82705 -2.53256,-3.3513 -1.2925,-2.80696 0.36044,-0.11288" /><path
       style="font-size:12px;fill:#34b4eb;fill-opacity:1;fill-rule:nonzero;stroke:none;stroke-width:1.06862"
       d="m 573.61169,396.67663 4.44992,-0.38016 2.34249,5.92484 -0.36044,0.11287 -1.41159,-3.4951 -0.99505,-1.18953 -0.1308,-0.0602 -1.72633,-0.24091 -0.26776,0.0716 -0.0646,0.0619 -0.0907,0.13176 -0.019,0.22465 0.25761,0.43961 0.1585,0.20199 0.15891,0.094 0.77905,0.40461 0.95923,1.16237 2.53831,4.38365 0.21867,0.56757 -0.0113,0.20466 -0.10647,-0.0104 -0.68323,-0.3257 -0.22357,-0.16243 -0.40727,-0.44681 -0.42145,-0.60069 -0.006,-0.0479 -1.47846,-2.29957 -1.17783,-0.96904 -0.37157,-0.16949 -0.23243,-0.0419 -0.0929,0.0561 -1.9441,-1.18293 -2.96044,-2.14362 3.32037,-0.27568"
       id="NC_Currituck" /><path
       id="NC_Hyde"
       style="font-size:12px;fill:#34b4eb;fill-opacity:1;fill-rule:nonzero;stroke:none;stroke-width:1.06862"
       d="m 577.1709,413.30159 2.98043,1.39949 -0.43822,0.22371 -0.88085,0.88815 -0.0646,0.0885 -0.61236,1.03424 0.0395,0.22294 -0.0341,0.19652 -0.17542,0.59722 -0.04,0.1234 -0.10242,0.12917 -0.76335,0.82707 -1.21485,0.91625 -0.1141,0.0481 -4.46597,-0.0611 -0.16151,-0.008 -1.41314,-0.29327 -1.12959,-0.26265 -0.25707,-0.32558 -0.51338,-0.74879 -0.43977,-0.9459 -0.0401,-0.23042 0.0103,-0.079 0.0644,-0.0737 0.2107,-0.0801 1.58457,-1.07412 -2.86282,-2.3147 4.29293,-0.20007 6.54108,0.003 m 5.86369,8.50654 0.11105,0.26398 -0.34676,0.12604 -0.34273,0.18715 -0.85377,0.47038 -1.21259,0.71515 -0.53493,0.32234 -0.62227,0.5063 -0.30145,0.30366 -0.19388,0.12173 -0.0448,-0.0636 0.0266,-0.0729 0.35958,-0.6444 0.36315,-0.35687 1.2145,-0.72977 1.82614,-0.99727 0.55211,-0.15193" /><ellipse
       style="fill:#34b4eb;fill-opacity:1;stroke:none;stroke-width:0.700226"
       id="path3092-1-2"
       cx="522.03119"
       cy="412.39474"
       rx="1.1838751"
       ry="1.0016991" /><ellipse
       style="fill:#34b4eb;fill-opacity:1;stroke:none;stroke-width:0.700226"
       id="path3092-1-2-1"
       cx="524.13953"
       cy="413.12415"
       rx="1.1838751"
       ry="1.0016991" /><ellipse
       style="fill:#34b4eb;fill-opacity:1;stroke:none;stroke-width:0.700226"
       id="path3092-1-2-7"
       cx="529.19958"
       cy="410.20648"
       rx="1.1838751"
       ry="1.0016991" /><ellipse
       style="fill:#34b4eb;fill-opacity:1;stroke:none;stroke-width:0.700226"
       id="path3092-1-2-4"
       cx="510.22443"
       cy="409.5986"
       rx="1.1838751"
       ry="1.0016991" /><ellipse
       style="fill:#34b4eb;fill-opacity:1;stroke:none;stroke-width:0.700226"
       id="path3092-1-2-0"
       cx="462.57571"
       cy="421.75568"
       rx="1.1838751"
       ry="1.0016991" /><ellipse
       style="fill:#34b4eb;fill-opacity:1;stroke:none;stroke-width:0.700226"
       id="path3092-1-2-9"
       cx="492.79541"
       cy="427.95581"
       rx="1.1838751"
       ry="1.0016991" /><path
       style="fill:#34b4eb;fill-opacity:1;stroke:#34b4eb;stroke-width:0;stroke-linecap:square;stroke-opacity:1;paint-order:fill markers stroke"
       d="m 307.14993,418.74505 -0.0557,-5.57902 -19.07127,0.4158 0.41581,150.93672 H 608.19175 V 412.33442 l -20.37437,0.41581 v 6.65286 h 13.30571 l 1.24741,139.29421 -307.69468,-0.4158 0.4158,-139.29422 z"
       id="path2" /><text
       xml:space="preserve"
       style="font-style:normal;font-variant:normal;font-weight:bold;font-stretch:normal;line-height:0%;font-family:Montserrat;-inkscape-font-specification:'Montserrat Bold';fill:#34b4eb;fill-opacity:1;stroke:url(#linearGradient7);stroke-width:0;stroke-linecap:square;paint-order:fill markers stroke"
       x="336.67493"
       y="394.05829"
       id="text2"
       transform="scale(0.91031421,1.0985218)"><tspan
         id="tspan2"
         x="336.67493"
         y="394.05829"
         style="font-style:normal;font-variant:normal;font-weight:bold;font-stretch:normal;font-size:42.1616px;line-height:1.25;font-family:Montserrat;-inkscape-font-specification:'Montserrat Bold';stroke:url(#linearGradient7);stroke-width:0;stroke-opacity:1"><tspan
   style="font-style:normal;font-variant:normal;font-weight:bold;font-stretch:normal;font-size:46.6667px;font-family:Montserrat;-inkscape-font-specification:'Montserrat Bold';fill:#ebc334;fill-opacity:1;stroke:url(#linearGradient7);stroke-opacity:1"
   id="tspan5">Frank</tspan> </tspan></text><text
       xml:space="preserve"
       style="font-weight:bold;line-height:0%;font-family:Montserrat;-inkscape-font-specification:'Montserrat Bold';fill:#34b4eb;fill-opacity:1;stroke:#34b4eb;stroke-width:0;stroke-linecap:square;stroke-opacity:1;paint-order:fill markers stroke"
       x="339.65335"
       y="461.23044"
       id="text3"
       transform="scale(0.89540595,1.1168119)"><tspan
         id="tspan3"
         x="339.65335"
         y="461.23044"
         style="font-size:83.378px;line-height:1.25;stroke-width:0">Pierce</tspan></text><text
       xml:space="preserve"
       style="font-weight:bold;line-height:0%;font-family:Montserrat;-inkscape-font-specification:'Montserrat Bold';fill:#34b4eb;fill-opacity:1;stroke:#34b4eb;stroke-width:0;stroke-linecap:square;stroke-opacity:1;paint-order:fill markers stroke"
       x="413.46048"
       y="547.20874"
       id="text4"><tspan
         id="tspan4"
         x="413.46048"
         y="547.20874"
         style="font-size:21.3333px;line-height:1.25;fill:#ebc334;fill-opacity:1">US CONGRESS</tspan></text></g></svg>
