<?xml version="1.0" encoding="UTF-8" standalone="no"?>
<!-- Created with Inkscape (http://www.inkscape.org/) -->

<svg
   version="1.1"
   id="svg1"
   width="184.27922"
   height="142.39758"
   viewBox="0 0 184.27922 142.39758"
   xml:space="preserve"
   xmlns="http://www.w3.org/2000/svg"
   xmlns:svg="http://www.w3.org/2000/svg"><defs
     id="defs1" /><g
     id="g1"
     style="display:inline"
     transform="translate(-15.356603,-15.635803)"><path
       style="display:inline;fill:#1e88e5;fill-opacity:1;stroke-width:1"
       d="m 187.51116,113.89543 c -2.2111,-0.68863 -4.62154,-2.81539 -5.62712,-4.96493 -0.43973,-0.93994 -0.53425,-1.59561 -0.53484,-3.70955 -6.6e-4,-2.40987 0.0494,-2.66816 0.8128,-4.19942 1.33873,-2.685154 3.72245,-4.378614 6.75163,-4.796593 4.25002,-0.586437 7.90574,1.222283 9.68939,4.793963 0.70284,1.40741 0.82475,1.92882 0.89615,3.83314 0.0672,1.79305 -0.0157,2.46382 -0.44644,3.59643 -0.91818,2.41611 -3.4013,4.71007 -5.91222,5.46192 -1.40425,0.42047 -4.25542,0.41289 -5.62935,-0.0154 z m 5.38183,-0.47342 c 2.49843,-0.74809 4.75777,-2.83241 5.67036,-5.23106 0.41365,-1.08719 0.50701,-1.79351 0.44139,-3.33827 -0.22605,-5.318615 -4.5785,-8.878419 -9.97257,-8.156244 -2.69903,0.361363 -5.12901,2.105776 -6.4927,4.660964 -0.62795,1.17662 -0.69562,1.5408 -0.69579,3.74526 -2.1e-4,2.81614 0.41308,3.99529 2.01249,5.74193 2.33162,2.54625 5.8191,3.5409 9.03682,2.57742 z m -5.22635,-1.5398 c -1.52629,-0.53146 -3.5138,-2.53423 -4.04695,-4.07799 -1.28162,-3.71093 0.28996,-7.56345 3.75003,-9.192818 1.57074,-0.739664 4.38613,-0.764447 6.005,-0.05289 3.6245,1.593188 5.32677,6.191268 3.58924,9.695078 -0.80482,1.62287 -2.47961,3.14334 -4.04047,3.66803 -1.43475,0.48232 -3.80963,0.46452 -5.25685,-0.0394 z m 4.99424,-0.44384 c 3.63992,-1.22365 5.46884,-5.47466 3.84907,-8.94651 -1.2047,-2.582175 -3.34721,-3.959003 -6.12746,-3.937687 -1.92626,0.01473 -3.05194,0.443704 -4.46661,1.702007 -1.47323,1.31036 -2.21061,2.96979 -2.21367,4.98168 -0.005,4.57728 4.50264,7.69847 8.95867,6.20051 z m -6.06209,-1.48135 c -0.0971,-0.0957 -0.17632,-2.2985 -0.17632,-4.89506 0,-4.72101 0,-4.72101 2.48302,-4.72101 3.50049,0 4.79746,0.64013 5.10673,2.52045 0.1947,1.18393 -0.0626,2.04928 -0.81363,2.73598 -0.62907,0.57519 -0.62907,0.57519 0.2818,2.18232 0.50103,0.88392 0.84783,1.76952 0.77061,1.968 -0.098,0.25204 -0.51498,0.36086 -1.38255,0.36086 -1.24219,0 -1.24219,0 -2.1147,-1.70933 -1.13547,-2.22456 -1.56259,-2.24027 -1.65938,-0.0611 -0.0731,1.64828 -0.0731,1.64828 -1.19617,1.72059 -0.61762,0.0397 -1.20238,-0.006 -1.29941,-0.10176 z m 2.05117,-1.92408 c 0,-1.58724 0,-1.58724 0.86859,-1.58724 0.82264,0 0.91052,0.084 1.66191,1.58724 0.77243,1.54542 0.81857,1.58724 1.75153,1.58724 0.95823,0 0.95823,0 0.0705,-1.56587 -0.48813,-0.86123 -0.88756,-1.72049 -0.88756,-1.90949 0,-0.18899 0.27549,-0.57994 0.6122,-0.86879 1.18423,-1.01586 1.08802,-2.86272 -0.19862,-3.81137 -0.57395,-0.42323 -1.12703,-0.52796 -3.15366,-0.59716 -2.45764,-0.0839 -2.45764,-0.0839 -2.45764,4.33437 0,4.41831 0,4.41831 0.86625,4.41831 0.8663,0 0.8663,0 0.8663,-1.58724 z m 0.0494,-4.45647 c 0.0742,-1.4041 0.0742,-1.4041 1.22703,-1.4776 0.96612,-0.0616 1.21657,0.0163 1.5469,0.48168 0.95434,1.34425 0.24355,2.40002 -1.61597,2.40002 -1.23219,0 -1.23219,0 -1.15796,-1.4041 z m 2.40425,0.55299 c 0.28511,-0.28117 0.29928,-0.47619 0.0705,-0.9713 -0.22758,-0.49249 -0.4648,-0.6195 -1.15767,-0.6195 -0.87147,0 -0.87161,1.4e-4 -0.87161,1.12939 0,1.12937 0,1.12937 0.80112,0.9713 0.44059,-0.0869 0.96153,-0.31638 1.15765,-0.50989 z"
       id="path6" /><rect
       style="display:inline;fill:#1e88e5;fill-opacity:1;stroke:#000000;stroke-width:0;stroke-linecap:square;paint-order:fill markers stroke"
       id="rect6"
       width="34.063736"
       height="32.388466"
       x="15.356603"
       y="52.212437"
       rx="6.2275233"
       ry="6.2275224" /><rect
       style="display:inline;opacity:1;fill:#1e88e5;fill-opacity:1;stroke:#000000;stroke-width:0;stroke-linecap:square;paint-order:fill markers stroke"
       id="rect7"
       width="34.063736"
       height="32.388466"
       x="52.770866"
       y="52.212437"
       rx="6.2275233"
       ry="6.2275224" /><rect
       style="display:inline;fill:#1e88e5;fill-opacity:1;stroke:#000000;stroke-width:0;stroke-linecap:square;paint-order:fill markers stroke"
       id="rect8"
       width="34.063736"
       height="32.388466"
       x="89.905922"
       y="52.491646"
       rx="6.2275233"
       ry="6.2275224" /><rect
       style="display:inline;fill:#43a047;fill-opacity:1;stroke:#000000;stroke-width:0;stroke-linecap:square;paint-order:fill markers stroke"
       id="rect9"
       width="34.063736"
       height="32.388466"
       x="127.5994"
       y="52.491646"
       rx="6.2275233"
       ry="6.2275224" /><rect
       style="display:inline;fill:#fb8c00;fill-opacity:1;stroke:#000000;stroke-width:0;stroke-linecap:square;paint-order:fill markers stroke"
       id="rect10"
       width="34.063736"
       height="32.388466"
       x="127.32019"
       y="15.635803"
       rx="6.2275233"
       ry="6.2275224" /><rect
       style="display:inline;fill:#fb8c00;fill-opacity:1;stroke:#000000;stroke-width:0;stroke-linecap:square;paint-order:fill markers stroke"
       id="rect11"
       width="34.063736"
       height="32.388466"
       x="127.04098"
       y="88.509857"
       rx="6.2275233"
       ry="6.2275224" /><rect
       style="display:inline;fill:#fb8c00;fill-opacity:1;stroke:#000000;stroke-width:0;stroke-linecap:square;paint-order:fill markers stroke"
       id="rect12"
       width="34.063736"
       height="32.388466"
       x="127.32019"
       y="125.64491"
       rx="6.2275233"
       ry="6.2275224" /><rect
       style="display:inline;fill:#1e88e5;fill-opacity:1;stroke:#000000;stroke-width:0;stroke-linecap:square;paint-order:fill markers stroke"
       id="rect13"
       width="34.063736"
       height="32.388466"
       x="165.57208"
       y="52.49165"
       rx="6.2275233"
       ry="6.2275224" /><text
       xml:space="preserve"
       style="font-style:normal;font-variant:normal;font-weight:bold;font-stretch:normal;font-size:13.3333px;font-family:Montserrat;-inkscape-font-specification:'Montserrat Bold';fill:#000000;stroke:#000000;stroke-width:0;stroke-linecap:square;paint-order:fill markers stroke"
       x="27.641882"
       y="73.153267"
       id="text2"><tspan
         id="tspan2"
         x="27.641882"
         y="73.153267">U</tspan></text><text
       xml:space="preserve"
       style="font-style:normal;font-variant:normal;font-weight:bold;font-stretch:normal;font-size:13.3333px;font-family:Montserrat;-inkscape-font-specification:'Montserrat Bold';fill:#000000;stroke:#000000;stroke-width:0;stroke-linecap:square;paint-order:fill markers stroke"
       x="66.172989"
       y="73.153267"
       id="text3"><tspan
         id="tspan3"
         x="66.172989"
         y="73.153267">T</tspan></text><text
       xml:space="preserve"
       style="font-style:normal;font-variant:normal;font-weight:bold;font-stretch:normal;font-size:13.3333px;font-family:Montserrat;-inkscape-font-specification:'Montserrat Bold';fill:#000000;stroke:#000000;stroke-width:0;stroke-linecap:square;paint-order:fill markers stroke"
       x="102.47041"
       y="73.432472"
       id="text4"><tspan
         id="tspan4"
         x="102.47041"
         y="73.432472">A</tspan></text><text
       xml:space="preserve"
       style="font-style:normal;font-variant:normal;font-weight:bold;font-stretch:normal;font-size:13.3333px;font-family:Montserrat;-inkscape-font-specification:'Montserrat Bold';fill:#000000;stroke:#000000;stroke-width:0;stroke-linecap:square;paint-order:fill markers stroke"
       x="139.32626"
       y="73.432472"
       id="text5"><tspan
         id="tspan5"
         x="139.32626"
         y="73.432472">N</tspan></text><text
       xml:space="preserve"
       style="font-style:normal;font-variant:normal;font-weight:bold;font-stretch:normal;font-size:13.3333px;font-family:Montserrat;-inkscape-font-specification:'Montserrat Bold';fill:#000000;stroke:#000000;stroke-width:0;stroke-linecap:square;paint-order:fill markers stroke"
       x="176.74052"
       y="73.711685"
       id="text6"><tspan
         id="tspan6"
         x="176.74052"
         y="73.711685">O</tspan></text><text
       xml:space="preserve"
       style="font-style:normal;font-variant:normal;font-weight:bold;font-stretch:normal;font-size:13.3333px;font-family:Montserrat;-inkscape-font-specification:'Montserrat Bold';fill:#000000;stroke:#000000;stroke-width:0;stroke-linecap:square;paint-order:fill markers stroke"
       x="139.32625"
       y="36.576633"
       id="text7"><tspan
         id="tspan7"
         x="139.32625"
         y="36.576633">C</tspan></text><text
       xml:space="preserve"
       style="font-style:normal;font-variant:normal;font-weight:bold;font-stretch:normal;font-size:13.3333px;font-family:Montserrat;-inkscape-font-specification:'Montserrat Bold';fill:#000000;stroke:#000000;stroke-width:0;stroke-linecap:square;paint-order:fill markers stroke"
       x="139.04706"
       y="108.61305"
       id="text8"><tspan
         id="tspan8"
         x="139.04706"
         y="108.61305">C</tspan></text><text
       xml:space="preserve"
       style="font-style:normal;font-variant:normal;font-weight:bold;font-stretch:normal;font-size:13.3333px;font-family:Montserrat;-inkscape-font-specification:'Montserrat Bold';fill:#000000;stroke:#000000;stroke-width:0;stroke-linecap:square;paint-order:fill markers stroke"
       x="140.16388"
       y="146.58574"
       id="text9"><tspan
         id="tspan9"
         x="140.16388"
         y="146.58574">T</tspan></text></g></svg>
